<svg xmlns="http://www.w3.org/2000/svg" width="239" viewBox="0 0 179.25 59.25" height="79" version="1.0"><defs><clipPath id="m"><path d="M58.043 12.344v33.593a11.847 11.847 0 0 1-11.852 11.848H12.598a11.85 11.85 0 0 1-8.38-3.469A11.86 11.86 0 0 1 .75 45.937V12.344a11.86 11.86 0 0 1 3.469-8.38A11.85 11.85 0 0 1 12.598.497H46.19a11.847 11.847 0 0 1 11.852 11.848zm0 0"/></clipPath><clipPath id="a"><path d="M.75 0H170v58.508H.75zm0 0"/></clipPath><clipPath id="d"><path d="M0 0h103v28H0z"/></clipPath><clipPath id="f"><path d="M80 5h4.836v8H80zm0 0"/></clipPath><clipPath id="e"><path d="M0 0h85v17H0z"/></clipPath><clipPath id="g"><path d="M.75.496h57.297V57.79H.75zm0 0"/></clipPath><clipPath id="h"><path d="M58.047 12.344V45.94c0 3.141-1.25 6.157-3.473 8.38a11.86 11.86 0 0 1-8.379 3.468H12.602A11.853 11.853 0 0 1 .75 45.941V12.344c0-3.14 1.25-6.156 3.473-8.38A11.837 11.837 0 0 1 12.602.497h33.593a11.854 11.854 0 0 1 11.852 11.848zm0 0"/></clipPath><clipPath id="j"><path d="M.75.496h57.297V57.79H.75zm0 0"/></clipPath><clipPath id="k"><path d="M58.047 12.344V45.94c0 3.141-1.25 6.157-3.473 8.38a11.86 11.86 0 0 1-8.379 3.468H12.602A11.853 11.853 0 0 1 .75 45.941V12.344c0-3.14 1.25-6.156 3.473-8.38A11.837 11.837 0 0 1 12.602.497h33.593a11.854 11.854 0 0 1 11.852 11.848zm0 0"/></clipPath><clipPath id="i"><path d="M0 0h59v58H0z"/></clipPath><clipPath id="l"><path d="M.75.496h57.656V58H.75zm0 0"/></clipPath><clipPath id="c"><path d="M67 7h102.73v28H67zm0 0"/></clipPath><clipPath id="n"><path d="M9 9.105h18.39v23.31H9zm0 0"/></clipPath><clipPath id="o"><path d="M9 9.105h6V15H9zm0 0"/></clipPath><clipPath id="p"><path d="M12.738 16.828h11.043v11.043H12.738zm0 0"/></clipPath><clipPath id="q"><path d="M23.96 40h25.763v5H23.96zm0 0"/></clipPath><clipPath id="r"><path d="M23.96 41h25.763v8.68H23.96zm0 0"/></clipPath><clipPath id="s"><path d="M23.96 33h25.763v5H23.96zm0 0"/></clipPath><clipPath id="t"><path d="M23.96 27h25.763v8H23.96zm0 0"/></clipPath><clipPath id="u"><path d="M23.96 34h25.763v9H23.96zm0 0"/></clipPath><clipPath id="v"><path d="M23.96 25.145h25.763V31H23.96zm0 0"/></clipPath><clipPath id="b"><path d="M0 0h170v59H0z"/></clipPath></defs><g clip-path="url(#a)"><g clip-path="url(#b)"><g clip-path="url(#c)"><g clip-path="url(#d)" transform="translate(67 7)"><path d="M1.835 21.724V5.13H12.82v2.89H5.35v3.954h6.75v2.89H5.35v6.86zM19.825 21.974c-1.262 0-2.351-.27-3.265-.813a5.49 5.49 0 0 1-2.125-2.25c-.493-.969-.735-2.086-.735-3.36 0-1.28.242-2.406.735-3.374a5.397 5.397 0 0 1 2.125-2.25c.914-.54 2.003-.813 3.265-.813 1.258 0 2.348.274 3.266.813a5.337 5.337 0 0 1 2.11 2.25c.5.968.75 2.093.75 3.375 0 1.273-.25 2.39-.75 3.359a5.429 5.429 0 0 1-2.11 2.25c-.918.543-2.008.813-3.266.813zm.016-2.688c.851 0 1.5-.352 1.937-1.062.438-.708.657-1.61.657-2.704 0-1.082-.22-1.976-.657-2.687-.437-.719-1.086-1.078-1.937-1.078-.867 0-1.524.36-1.969 1.078-.45.71-.672 1.605-.672 2.687 0 1.094.223 1.996.672 2.704.445.71 1.102 1.062 1.969 1.062zM28.19 21.724V9.286h3.344v2.172h.141c.219-.781.594-1.367 1.125-1.766.531-.394 1.148-.593 1.86-.593.331 0 .64.042.921.125.29.085.551.195.782.328l-1.047 2.859a2.734 2.734 0 0 0-.532-.203 2.028 2.028 0 0 0-.64-.094c-.7 0-1.29.242-1.766.719-.48.469-.726 1.086-.734 1.844v7.047zM37.963 21.724V9.286h3.297v2.188h.14c.258-.727.692-1.301 1.297-1.72.614-.425 1.336-.64 2.172-.64.852 0 1.578.215 2.172.64.602.43 1.004 1 1.203 1.72h.125c.258-.708.723-1.274 1.39-1.704.665-.437 1.454-.656 2.36-.656 1.164 0 2.11.371 2.828 1.11.727.742 1.094 1.78 1.094 3.125v8.375h-3.437v-7.688c0-.687-.188-1.203-.563-1.547a1.893 1.893 0 0 0-1.36-.531c-.636 0-1.132.203-1.484.61-.343.398-.515.917-.515 1.562v7.594h-3.344v-7.766c0-.602-.18-1.086-.531-1.453-.344-.364-.797-.547-1.36-.547-.574 0-1.058.215-1.453.64-.386.418-.578.97-.578 1.657v7.469zM69.114 12.833l-3.156.187c-.094-.394-.32-.734-.672-1.015-.344-.29-.82-.438-1.422-.438-.531 0-.985.117-1.36.344-.367.219-.546.516-.546.89a.95.95 0 0 0 .359.75c.238.212.648.372 1.234.485l2.25.469c2.383.492 3.582 1.61 3.594 3.36 0 .812-.242 1.53-.719 2.155-.48.618-1.136 1.094-1.968 1.438-.836.344-1.79.516-2.86.516-1.648 0-2.96-.344-3.937-1.032-.98-.695-1.547-1.64-1.703-2.828l3.39-.172c.102.512.352.899.75 1.157.395.25.899.375 1.516.375.601 0 1.086-.114 1.453-.344.375-.239.562-.54.562-.906-.011-.625-.543-1.04-1.593-1.25l-2.157-.422c-2.406-.477-3.605-1.664-3.593-3.563 0-1.195.476-2.14 1.437-2.828.969-.695 2.25-1.047 3.844-1.047 1.57 0 2.805.336 3.703 1 .906.668 1.438 1.574 1.594 2.719zM77.516 21.724h-5.89V5.13h5.937c1.664 0 3.101.336 4.312 1 1.207.656 2.133 1.605 2.782 2.844.644 1.242.968 2.718.968 4.437 0 1.73-.328 3.215-.984 4.453a6.72 6.72 0 0 1-2.797 2.86c-1.21.667-2.652 1-4.328 1zm-2.375-3h2.219c1.562 0 2.742-.422 3.547-1.266.812-.844 1.218-2.192 1.218-4.047 0-1.844-.406-3.18-1.218-4.016-.805-.832-1.98-1.25-3.532-1.25h-2.234zM88.207 21.724V5.13h6.64c1.832 0 3.207.402 4.125 1.203.926.793 1.39 1.808 1.39 3.047 0 .98-.288 1.773-.858 2.375-.563.605-1.278 1.008-2.141 1.203v.156a3.68 3.68 0 0 1 1.781.531c.551.336 1 .797 1.344 1.391.344.586.516 1.29.516 2.11 0 .874-.22 1.663-.657 2.359-.43.687-1.07 1.23-1.922 1.625-.843.398-1.886.594-3.125.594zm3.515-2.875h2.86c.976 0 1.691-.188 2.14-.563.446-.375.672-.875.672-1.5 0-.687-.246-1.25-.734-1.687-.492-.438-1.156-.657-2-.657h-2.938zm0-6.766h2.594c.719 0 1.313-.188 1.781-.563.477-.382.719-.898.719-1.546 0-.602-.215-1.086-.64-1.454-.419-.363-1.016-.546-1.797-.546h-2.657zm0 0"/></g></g><g clip-path="url(#e)" transform="translate(83 34)"><path d="M5.217 5.138v.922H3.624v6.187H2.53V6.06H1.374v-.922H2.53v-.985c0-.406.094-.742.281-1.015.188-.27.43-.473.735-.61.312-.133.64-.203.984-.203.258 0 .473.024.64.063.176.043.305.086.391.125l-.312.937a1.811 1.811 0 0 1-.235-.062 1.22 1.22 0 0 0-.375-.047c-.367 0-.625.094-.78.281-.157.18-.235.445-.235.797v.719zM9.341 12.388c-.648 0-1.215-.149-1.703-.453-.48-.301-.855-.727-1.125-1.282-.262-.55-.39-1.191-.39-1.922 0-.738.128-1.382.39-1.937.27-.55.645-.977 1.125-1.281.488-.313 1.055-.47 1.703-.47.633 0 1.192.157 1.672.47.488.304.867.73 1.14 1.28.27.556.407 1.2.407 1.938 0 .73-.137 1.371-.406 1.922a3.04 3.04 0 0 1-1.14 1.282c-.481.304-1.04.453-1.673.453zm0-.97c.489 0 .89-.124 1.203-.374.313-.25.54-.578.688-.984.156-.407.234-.848.234-1.329a3.68 3.68 0 0 0-.234-1.328 2.187 2.187 0 0 0-.688-.984c-.312-.258-.714-.39-1.203-.39-.492 0-.89.132-1.203.39-.312.25-.547.578-.703.984a3.852 3.852 0 0 0-.219 1.328c0 .48.07.922.219 1.329.156.406.39.734.703.984.313.25.711.375 1.203.375zM14.224 12.247v-7.11h1.047v1.079h.078c.125-.352.36-.64.704-.86a2.102 2.102 0 0 1 1.156-.328c.195 0 .367.028.515.078.145.043.274.106.391.188l-.375.922a1.11 1.11 0 0 0-.266-.094 1.986 1.986 0 0 0-.359-.031c-.523 0-.953.156-1.297.469-.336.312-.5.71-.5 1.187v4.5zM25.871 12.388c-.688 0-1.281-.149-1.781-.453a3.015 3.015 0 0 1-1.14-1.266c-.263-.55-.392-1.192-.392-1.922 0-.727.13-1.367.391-1.922.27-.562.645-1 1.125-1.312.477-.313 1.04-.47 1.688-.47.363 0 .722.063 1.078.188.363.125.691.329.984.61.3.273.54.636.719 1.094.176.449.265 1.007.265 1.671v.454h-5.156c.02.761.235 1.343.64 1.75.407.406.93.609 1.579.609.426 0 .789-.094 1.094-.281.312-.188.535-.461.672-.828l1.062.296c-.168.532-.5.965-1 1.297-.5.324-1.11.485-1.828.485zm-2.219-4.266H27.7c0-.602-.18-1.102-.531-1.5-.356-.395-.824-.594-1.406-.594a2.02 2.02 0 0 0-1.094.297 2.023 2.023 0 0 0-.719.766c-.18.324-.277.668-.297 1.031zM31.569 2.763v9.484h-1.094V2.763zM36.55 12.388c-.687 0-1.28-.149-1.78-.453a3.015 3.015 0 0 1-1.141-1.266c-.262-.55-.39-1.192-.39-1.922 0-.727.128-1.367.39-1.922.27-.562.644-1 1.125-1.312.476-.313 1.039-.47 1.687-.47.364 0 .723.063 1.078.188.364.125.692.329.985.61.3.273.539.636.719 1.094.175.449.265 1.007.265 1.671v.454h-5.156c.02.761.234 1.343.64 1.75.407.406.93.609 1.579.609.425 0 .789-.094 1.093-.281.313-.188.536-.461.672-.828l1.063.296c-.168.532-.5.965-1 1.297-.5.324-1.11.485-1.828.485zm-2.218-4.266h4.047c0-.602-.18-1.102-.531-1.5-.356-.395-.825-.594-1.407-.594a2.02 2.02 0 0 0-1.093.297 2.023 2.023 0 0 0-.72.766c-.179.324-.277.668-.296 1.031zM41.155 12.247v-7.11h1.047v1.11h.094a1.87 1.87 0 0 1 .718-.875c.332-.219.727-.328 1.188-.328.469 0 .86.11 1.172.328.32.211.566.5.734.875h.078c.188-.363.461-.656.828-.875.364-.219.797-.328 1.297-.328.633 0 1.156.2 1.563.594.406.398.61 1.015.61 1.859v4.75h-1.095v-4.75c0-.531-.148-.906-.437-1.125a1.553 1.553 0 0 0-1-.344c-.5 0-.89.153-1.172.453-.273.305-.406.684-.406 1.141v4.625h-1.11V7.372c0-.395-.132-.719-.39-.969-.262-.25-.602-.375-1.016-.375-.281 0-.547.078-.797.235a1.726 1.726 0 0 0-.594.625c-.148.261-.218.57-.218.922v4.437zM55.467 12.388c-.688 0-1.281-.149-1.781-.453a3.015 3.015 0 0 1-1.141-1.266c-.262-.55-.39-1.192-.39-1.922 0-.727.128-1.367.39-1.922.27-.562.644-1 1.125-1.312.477-.313 1.039-.47 1.687-.47.364 0 .723.063 1.079.188.363.125.691.329.984.61.3.273.539.636.719 1.094.175.449.265 1.007.265 1.671v.454h-5.156c.02.761.234 1.343.64 1.75.407.406.93.609 1.579.609.426 0 .789-.094 1.094-.281.312-.188.535-.461.671-.828l1.063.296c-.168.532-.5.965-1 1.297-.5.324-1.11.485-1.828.485zm-2.219-4.266h4.047c0-.602-.18-1.102-.531-1.5-.356-.395-.825-.594-1.407-.594a2.02 2.02 0 0 0-1.093.297 2.023 2.023 0 0 0-.719.766c-.18.324-.277.668-.297 1.031zM61.165 7.966v4.281H60.07v-7.11h1.047v1.11h.094c.164-.352.422-.64.765-.86.344-.226.782-.343 1.313-.343.719 0 1.297.226 1.734.672.446.437.672 1.11.672 2.015v4.516h-1.094V7.81c0-.563-.148-1-.437-1.313-.281-.312-.68-.469-1.188-.469-.523 0-.953.172-1.296.516-.344.336-.516.808-.516 1.422zM70.79 5.138v.922h-1.515v4.156c0 .304.039.531.125.687.094.157.21.262.36.313.144.043.296.062.452.062a2.02 2.02 0 0 0 .485-.047l.219.985c-.075.023-.18.047-.313.078a2.146 2.146 0 0 1-.5.047 2.16 2.16 0 0 1-.906-.203 1.811 1.811 0 0 1-.735-.61c-.187-.27-.28-.61-.28-1.015V6.06h-1.079v-.922h1.078V3.435h1.094v1.703zM75.252 12.388c-.649 0-1.215-.149-1.703-.453-.48-.301-.856-.727-1.125-1.282-.262-.55-.391-1.191-.391-1.922 0-.738.129-1.382.39-1.937.27-.55.645-.977 1.126-1.281.488-.313 1.054-.47 1.703-.47.633 0 1.191.157 1.672.47.488.304.867.73 1.14 1.28.27.556.406 1.2.406 1.938 0 .73-.136 1.371-.406 1.922a3.04 3.04 0 0 1-1.14 1.282c-.48.304-1.04.453-1.672.453zm0-.97c.488 0 .89-.124 1.203-.374.312-.25.539-.578.687-.984.157-.407.235-.848.235-1.329a3.68 3.68 0 0 0-.235-1.328 2.187 2.187 0 0 0-.687-.984c-.313-.258-.715-.39-1.203-.39-.492 0-.89.132-1.203.39-.313.25-.547.578-.704.984a3.852 3.852 0 0 0-.218 1.328c0 .48.07.922.218 1.329.157.406.391.734.704.984.312.25.71.375 1.203.375zm0 0" fill="#5a5a5a"/><g clip-path="url(#f)"><path d="M80.135 12.247v-7.11h1.047v1.079h.078c.125-.352.36-.64.703-.86a2.102 2.102 0 0 1 1.156-.328c.196 0 .367.028.516.078.144.043.273.106.39.188l-.375.922a1.11 1.11 0 0 0-.265-.094 1.986 1.986 0 0 0-.36-.031c-.523 0-.953.156-1.296.469-.336.312-.5.71-.5 1.187v4.5zm0 0" fill="#5a5a5a"/></g></g><g clip-path="url(#g)"><g clip-path="url(#h)"><g clip-path="url(#i)"><g clip-path="url(#j)"><g clip-path="url(#k)"><path fill="#fff" d="M.75.496h57.297V57.79H.75zm0 0"/></g></g></g></g></g><g clip-path="url(#l)"><g clip-path="url(#m)"><path fill="none" d="M58.043 12.344v33.594a11.847 11.847 0 0 1-11.852 11.847H12.598a11.85 11.85 0 0 1-8.38-3.469A11.86 11.86 0 0 1 .75 45.938V12.344a11.86 11.86 0 0 1 3.469-8.38A11.85 11.85 0 0 1 12.598.497H46.19a11.847 11.847 0 0 1 11.852 11.848zm0 0" stroke="#000" stroke-width="3.70352806"/></g></g><g clip-path="url(#n)"><path fill="#3db63d" d="M24.895 9.105c.347 0 .68.067.996.2.32.129.601.316.843.562.246.242.434.524.567.844.129.316.195.648.195.996V29.41c0 .344-.066.676-.195.996a2.609 2.609 0 0 1-2.406 1.606H11.648c-.343 0-.675-.067-.996-.2a2.66 2.66 0 0 1-.843-.562 2.66 2.66 0 0 1-.563-.844c-.133-.32-.2-.652-.2-.996V14.777c0-.324.118-.601.345-.828l4.5-4.5c.23-.23.507-.344.832-.344zm0 0"/></g><g clip-path="url(#o)"><path fill="#075a07" d="M9.156 14.293c.059-.129.137-.246.235-.344l4.5-4.5c.101-.101.214-.18.343-.234v2.476c0 .344-.066.676-.195.996a2.609 2.609 0 0 1-2.406 1.606zm0 0"/></g><g clip-path="url(#p)"><path fill="#c7ffc7" d="M12.746 16.828h11.102v1.235H12.746zm0 9.254h8.637v1.234h-8.637zm0-3.086h11.102v1.234H12.746zm0-3.082h8.637v1.234h-8.637zm0 0"/></g><g clip-path="url(#q)"><path fill="#ffa1c7" d="M25.156 40.488c-.75.34-1.172.715-1.172 1.114 0 1.472 5.774 2.668 12.899 2.668 7.12 0 12.894-1.196 12.894-2.668 0-.399-.418-.774-1.172-1.114-2.039.918-6.52 1.559-11.722 1.559-5.207 0-9.688-.64-11.727-1.559zm0 0"/></g><g clip-path="url(#r)"><path fill="#92003b" d="M36.883 44.27c-7.125 0-12.899-1.196-12.899-2.668v4.89c0 1.473 5.774 2.668 12.899 2.668 7.12 0 12.894-1.195 12.894-2.668v-4.89c0 1.472-5.773 2.668-12.894 2.668zm0 0"/></g><g clip-path="url(#s)"><path fill="#ffa1c7" d="M25.156 33.371c-.75.34-1.172.715-1.172 1.113 0 1.473 5.774 2.668 12.899 2.668 7.12 0 12.894-1.195 12.894-2.668 0-.398-.418-.773-1.172-1.113-2.039.918-6.52 1.559-11.722 1.559-5.207 0-9.688-.64-11.727-1.559zm0 0"/></g><g clip-path="url(#t)"><path fill="#92003b" d="M36.883 30.035c-7.125 0-12.899-1.191-12.899-2.668v4.895c0 .394.422.773 1.172 1.11 2.04.917 6.52 1.558 11.727 1.558 5.203 0 9.683-.64 11.722-1.559.75-.336 1.172-.715 1.172-1.11v-4.894c0 1.477-5.773 2.668-12.894 2.668zm0 0"/></g><g clip-path="url(#u)"><path fill="#92003b" d="M36.883 37.152c-7.125 0-12.899-1.195-12.899-2.668v4.891c0 .398.422.773 1.172 1.113 2.04.918 6.52 1.559 11.727 1.559 5.203 0 9.683-.64 11.722-1.559.75-.34 1.172-.715 1.172-1.113v-4.89c0 1.472-5.773 2.667-12.894 2.667zm0 0"/></g><g clip-path="url(#v)"><path fill="#ffa1c7" d="M36.883 25.145c-7.125 0-12.899.75-12.899 2.222 0 1.477 5.774 2.668 12.899 2.668 7.12 0 12.894-1.191 12.894-2.668 0-1.472-5.773-2.222-12.894-2.222zm0 0"/></g><path fill="#ffa1c7" d="M38.215 32.707h-2.668a.445.445 0 1 1 0-.89h2.668a.445.445 0 1 1 0 .89zM38.215 39.82h-2.668a.444.444 0 1 1 0-.887h2.668a.444.444 0 1 1 0 .887zM38.215 46.938h-2.668a.445.445 0 1 1 0-.891h2.668a.445.445 0 1 1 0 .89zm0 0"/><path fill="none" d="M28.238 16.125h4.602c2.3 0 4.168 1.863 4.168 4.168v4.168" stroke="#000" stroke-width="2.45348"/></g></g></svg>